<mxfile host="app.diagrams.net" modified="2023-08-04T03:33:58.237Z" agent="Mozilla/5.0 (Windows NT 10.0; Win64; x64) AppleWebKit/537.36 (KHTML, like Gecko) Chrome/114.0.0.0 Safari/537.36" etag="UrguLZobmiCCZu2NXnsc" version="21.6.5" type="github">
  <diagram name="第 1 页" id="E5oqeyXUT3EholCvVv0P">
    <mxGraphModel dx="2261" dy="774" grid="1" gridSize="10" guides="1" tooltips="1" connect="1" arrows="1" fold="1" page="1" pageScale="1" pageWidth="827" pageHeight="1169" math="0" shadow="0">
      <root>
        <mxCell id="0" />
        <mxCell id="1" parent="0" />
        <mxCell id="5qIUG_8EQPnFbdWqvxKQ-47" style="edgeStyle=orthogonalEdgeStyle;rounded=0;orthogonalLoop=1;jettySize=auto;html=1;exitX=1;exitY=0.5;exitDx=0;exitDy=0;entryX=0;entryY=0.5;entryDx=0;entryDy=0;" edge="1" parent="1" source="5qIUG_8EQPnFbdWqvxKQ-1" target="5qIUG_8EQPnFbdWqvxKQ-44">
          <mxGeometry relative="1" as="geometry" />
        </mxCell>
        <mxCell id="5qIUG_8EQPnFbdWqvxKQ-1" value="HELM" style="whiteSpace=wrap;html=1;aspect=fixed;" vertex="1" parent="1">
          <mxGeometry x="-270" y="250" width="80" height="80" as="geometry" />
        </mxCell>
        <mxCell id="5qIUG_8EQPnFbdWqvxKQ-24" style="rounded=0;orthogonalLoop=1;jettySize=auto;html=1;exitX=1;exitY=0.5;exitDx=0;exitDy=0;entryX=0;entryY=0.5;entryDx=0;entryDy=0;elbow=vertical;" edge="1" parent="1" source="5qIUG_8EQPnFbdWqvxKQ-3" target="5qIUG_8EQPnFbdWqvxKQ-20">
          <mxGeometry relative="1" as="geometry" />
        </mxCell>
        <mxCell id="5qIUG_8EQPnFbdWqvxKQ-25" style="rounded=0;orthogonalLoop=1;jettySize=auto;html=1;exitX=1;exitY=0.5;exitDx=0;exitDy=0;entryX=0;entryY=0.5;entryDx=0;entryDy=0;" edge="1" parent="1" source="5qIUG_8EQPnFbdWqvxKQ-3" target="5qIUG_8EQPnFbdWqvxKQ-21">
          <mxGeometry relative="1" as="geometry" />
        </mxCell>
        <mxCell id="5qIUG_8EQPnFbdWqvxKQ-26" style="rounded=0;orthogonalLoop=1;jettySize=auto;html=1;exitX=1;exitY=0.5;exitDx=0;exitDy=0;entryX=0;entryY=0.5;entryDx=0;entryDy=0;" edge="1" parent="1" source="5qIUG_8EQPnFbdWqvxKQ-3" target="5qIUG_8EQPnFbdWqvxKQ-22">
          <mxGeometry relative="1" as="geometry" />
        </mxCell>
        <mxCell id="5qIUG_8EQPnFbdWqvxKQ-27" style="rounded=0;orthogonalLoop=1;jettySize=auto;html=1;exitX=1;exitY=0.5;exitDx=0;exitDy=0;entryX=0;entryY=0.5;entryDx=0;entryDy=0;" edge="1" parent="1" source="5qIUG_8EQPnFbdWqvxKQ-3" target="5qIUG_8EQPnFbdWqvxKQ-23">
          <mxGeometry relative="1" as="geometry" />
        </mxCell>
        <mxCell id="5qIUG_8EQPnFbdWqvxKQ-3" value="chart实例" style="rounded=0;whiteSpace=wrap;html=1;" vertex="1" parent="1">
          <mxGeometry x="150" y="130" width="90" height="90" as="geometry" />
        </mxCell>
        <mxCell id="5qIUG_8EQPnFbdWqvxKQ-40" style="edgeStyle=orthogonalEdgeStyle;rounded=0;orthogonalLoop=1;jettySize=auto;html=1;exitX=1;exitY=0.5;exitDx=0;exitDy=0;entryX=0;entryY=0.5;entryDx=0;entryDy=0;" edge="1" parent="1" source="5qIUG_8EQPnFbdWqvxKQ-20" target="5qIUG_8EQPnFbdWqvxKQ-29">
          <mxGeometry relative="1" as="geometry" />
        </mxCell>
        <mxCell id="5qIUG_8EQPnFbdWqvxKQ-20" value="charts目录" style="rounded=0;whiteSpace=wrap;html=1;" vertex="1" parent="1">
          <mxGeometry x="310" width="120" height="60" as="geometry" />
        </mxCell>
        <mxCell id="5qIUG_8EQPnFbdWqvxKQ-39" style="edgeStyle=orthogonalEdgeStyle;rounded=0;orthogonalLoop=1;jettySize=auto;html=1;exitX=1;exitY=0.5;exitDx=0;exitDy=0;entryX=0;entryY=0.5;entryDx=0;entryDy=0;" edge="1" parent="1" source="5qIUG_8EQPnFbdWqvxKQ-21" target="5qIUG_8EQPnFbdWqvxKQ-37">
          <mxGeometry relative="1" as="geometry" />
        </mxCell>
        <mxCell id="5qIUG_8EQPnFbdWqvxKQ-21" value="Chart.yaml文件" style="rounded=0;whiteSpace=wrap;html=1;" vertex="1" parent="1">
          <mxGeometry x="310" y="90" width="120" height="60" as="geometry" />
        </mxCell>
        <mxCell id="5qIUG_8EQPnFbdWqvxKQ-32" style="edgeStyle=orthogonalEdgeStyle;rounded=0;orthogonalLoop=1;jettySize=auto;html=1;exitX=1;exitY=0.5;exitDx=0;exitDy=0;" edge="1" parent="1" source="5qIUG_8EQPnFbdWqvxKQ-22" target="5qIUG_8EQPnFbdWqvxKQ-31">
          <mxGeometry relative="1" as="geometry" />
        </mxCell>
        <mxCell id="5qIUG_8EQPnFbdWqvxKQ-22" value="templates目录" style="rounded=0;whiteSpace=wrap;html=1;" vertex="1" parent="1">
          <mxGeometry x="310" y="190" width="120" height="60" as="geometry" />
        </mxCell>
        <mxCell id="5qIUG_8EQPnFbdWqvxKQ-36" style="edgeStyle=orthogonalEdgeStyle;rounded=0;orthogonalLoop=1;jettySize=auto;html=1;exitX=1;exitY=0.5;exitDx=0;exitDy=0;" edge="1" parent="1" source="5qIUG_8EQPnFbdWqvxKQ-23" target="5qIUG_8EQPnFbdWqvxKQ-34">
          <mxGeometry relative="1" as="geometry" />
        </mxCell>
        <mxCell id="5qIUG_8EQPnFbdWqvxKQ-23" value="values.yaml文件" style="rounded=0;whiteSpace=wrap;html=1;" vertex="1" parent="1">
          <mxGeometry x="310" y="280" width="120" height="60" as="geometry" />
        </mxCell>
        <mxCell id="5qIUG_8EQPnFbdWqvxKQ-29" value="可选的目录，用于存放Chart依赖的其他Chart" style="rounded=0;whiteSpace=wrap;html=1;" vertex="1" parent="1">
          <mxGeometry x="470" width="150" height="60" as="geometry" />
        </mxCell>
        <mxCell id="5qIUG_8EQPnFbdWqvxKQ-42" style="edgeStyle=orthogonalEdgeStyle;rounded=0;orthogonalLoop=1;jettySize=auto;html=1;exitX=1;exitY=0.5;exitDx=0;exitDy=0;entryX=0;entryY=0.5;entryDx=0;entryDy=0;" edge="1" parent="1" source="5qIUG_8EQPnFbdWqvxKQ-31" target="5qIUG_8EQPnFbdWqvxKQ-41">
          <mxGeometry relative="1" as="geometry" />
        </mxCell>
        <mxCell id="5qIUG_8EQPnFbdWqvxKQ-31" value="存放Deployment、Configmap、svc、Service、ingress、pvc等.yaml文件" style="rounded=0;whiteSpace=wrap;html=1;" vertex="1" parent="1">
          <mxGeometry x="470" y="190" width="150" height="60" as="geometry" />
        </mxCell>
        <mxCell id="5qIUG_8EQPnFbdWqvxKQ-34" value="Chart的配置信息" style="rounded=0;whiteSpace=wrap;html=1;" vertex="1" parent="1">
          <mxGeometry x="470" y="280" width="150" height="60" as="geometry" />
        </mxCell>
        <mxCell id="5qIUG_8EQPnFbdWqvxKQ-37" value="描述Chart的元数据信息" style="rounded=0;whiteSpace=wrap;html=1;" vertex="1" parent="1">
          <mxGeometry x="470" y="90" width="150" height="60" as="geometry" />
        </mxCell>
        <mxCell id="5qIUG_8EQPnFbdWqvxKQ-41" value="" style="rounded=0;whiteSpace=wrap;html=1;" vertex="1" parent="1">
          <mxGeometry x="680" y="190" width="120" height="60" as="geometry" />
        </mxCell>
        <mxCell id="5qIUG_8EQPnFbdWqvxKQ-43" value="helm upgrade udesk-im-s8-k8s-blue . --namespace=default -f values-s8.yaml.tmpl.yaml --set image.tag=commit-ea0566688fb5 --force --install" style="text;whiteSpace=wrap;" vertex="1" parent="1">
          <mxGeometry x="-690" y="500" width="770" height="20" as="geometry" />
        </mxCell>
        <mxCell id="5qIUG_8EQPnFbdWqvxKQ-48" style="rounded=0;orthogonalLoop=1;jettySize=auto;html=1;exitX=1;exitY=0.5;exitDx=0;exitDy=0;entryX=0;entryY=0.5;entryDx=0;entryDy=0;" edge="1" parent="1" source="5qIUG_8EQPnFbdWqvxKQ-44" target="5qIUG_8EQPnFbdWqvxKQ-3">
          <mxGeometry relative="1" as="geometry" />
        </mxCell>
        <mxCell id="5qIUG_8EQPnFbdWqvxKQ-53" style="rounded=0;orthogonalLoop=1;jettySize=auto;html=1;exitX=1;exitY=0.5;exitDx=0;exitDy=0;entryX=0;entryY=0.5;entryDx=0;entryDy=0;" edge="1" parent="1" source="5qIUG_8EQPnFbdWqvxKQ-44" target="5qIUG_8EQPnFbdWqvxKQ-52">
          <mxGeometry relative="1" as="geometry" />
        </mxCell>
        <mxCell id="5qIUG_8EQPnFbdWqvxKQ-44" value="chart" style="rounded=0;whiteSpace=wrap;html=1;" vertex="1" parent="1">
          <mxGeometry x="-140" y="250" width="90" height="80" as="geometry" />
        </mxCell>
        <mxCell id="5qIUG_8EQPnFbdWqvxKQ-49" value="helm create  目录" style="text;whiteSpace=wrap;" vertex="1" parent="1">
          <mxGeometry x="-30" y="200" width="100" height="20" as="geometry" />
        </mxCell>
        <mxCell id="5qIUG_8EQPnFbdWqvxKQ-61" style="edgeStyle=orthogonalEdgeStyle;rounded=0;orthogonalLoop=1;jettySize=auto;html=1;exitX=1;exitY=0.5;exitDx=0;exitDy=0;" edge="1" parent="1" source="5qIUG_8EQPnFbdWqvxKQ-52" target="5qIUG_8EQPnFbdWqvxKQ-60">
          <mxGeometry relative="1" as="geometry" />
        </mxCell>
        <mxCell id="5qIUG_8EQPnFbdWqvxKQ-52" value="运行chart" style="rounded=0;whiteSpace=wrap;html=1;" vertex="1" parent="1">
          <mxGeometry x="150" y="380" width="90" height="80" as="geometry" />
        </mxCell>
        <mxCell id="5qIUG_8EQPnFbdWqvxKQ-56" style="edgeStyle=orthogonalEdgeStyle;rounded=0;orthogonalLoop=1;jettySize=auto;html=1;entryX=0.5;entryY=0;entryDx=0;entryDy=0;curved=1;dashed=1;" edge="1" parent="1" source="5qIUG_8EQPnFbdWqvxKQ-54" target="5qIUG_8EQPnFbdWqvxKQ-43">
          <mxGeometry relative="1" as="geometry" />
        </mxCell>
        <mxCell id="5qIUG_8EQPnFbdWqvxKQ-54" value="helm install [Release名称]  [chart目录]" style="text;whiteSpace=wrap;" vertex="1" parent="1">
          <mxGeometry x="-130" y="370" width="220" height="20" as="geometry" />
        </mxCell>
        <mxCell id="5qIUG_8EQPnFbdWqvxKQ-57" value="实例" style="text;whiteSpace=wrap;" vertex="1" parent="1">
          <mxGeometry x="-160" y="420" width="30" height="30" as="geometry" />
        </mxCell>
        <mxCell id="5qIUG_8EQPnFbdWqvxKQ-60" value="Release" style="rounded=0;whiteSpace=wrap;html=1;" vertex="1" parent="1">
          <mxGeometry x="310" y="390" width="120" height="60" as="geometry" />
        </mxCell>
      </root>
    </mxGraphModel>
  </diagram>
</mxfile>
